<?xml version="1.0" encoding="utf-8"?>
<!-- Generator: Adobe Illustrator 24.0.1, SVG Export Plug-In . SVG Version: 6.00 Build 0)  -->
<svg version="1.1" id="e5c6fe42-ae74-4efe-bfa8-5003ba06ab4b"
	 xmlns="http://www.w3.org/2000/svg" xmlns:xlink="http://www.w3.org/1999/xlink" x="0px" y="0px" viewBox="0 0 1133.9 850.4"
	 style="enable-background:new 0 0 1133.9 850.4;" xml:space="preserve">
<style type="text/css">
	.st0{fill:#2F2E41;}
	.st1{fill:#6C63FF;}
	.st2{fill:#9E616A;}
	.st3{opacity:0.1;fill:#6C63FF;enable-background:new    ;}
</style>
<title>animating</title>
<rect x="101.7" y="337.6" class="st0" width="969" height="2"/>
<path class="st1" d="M924.1,722c-13.8,18.1,2,53.4,2,53.4s38.2,5.9,52.1-12.2s-2-53.4-2-53.4S937.9,703.8,924.1,722z"/>
<path class="st0" d="M200.2,318.1c-42,0-76-34-76-76s34-76,76-76s76,34,76,76C276.1,284,242.1,318,200.2,318.1z M200.2,168.1
	c-40.9,0-74,33.1-74,74s33.1,74,74,74s74-33.1,74-74C274.1,201.2,241,168.1,200.2,168.1L200.2,168.1z"/>
<path class="st0" d="M200.2,150.6c-25.9,0-47-17.2-47-38.2s21.1-38.3,47-38.3s47,17.2,47,38.3S226.1,150.6,200.2,150.6z M200.2,75.7
	c-24.8,0-45,16.4-45,36.6s20.2,36.6,45,36.6s45-16.4,45-36.6S225,75.7,200.2,75.7z"/>
<path class="st0" d="M178.2,133.1c-5.6,0-10-8.3-10-19s4.4-19,10-19s10,8.3,10,19S183.8,133.1,178.2,133.1z M178.2,97.1
	c-4.3,0-8,7.8-8,17s3.7,17,8,17s8-7.8,8-17S182.5,97.1,178.2,97.1z"/>
<path class="st0" d="M222.2,133.1c-5.6,0-10-8.3-10-19s4.4-19,10-19s10,8.3,10,19S227.8,133.1,222.2,133.1z M222.2,97.1
	c-4.3,0-8,7.8-8,17s3.7,17,8,17s8-7.8,8-17S226.5,97.1,222.2,97.1z"/>
<path class="st0" d="M298.2,223.1c-22.1,0-40-17.9-40-40s17.9-40,40-40s40,17.9,40,40C338.2,205.1,320.3,223,298.2,223.1z
	 M298.2,145.1c-21,0-38,17-38,38s17,38,38,38s38-17,38-38l0,0C336.2,162.1,319.2,145.1,298.2,145.1z"/>
<path class="st0" d="M103.2,223.1c-22.1,0-40-17.9-40-40s17.9-40,40-40s40,17.9,40,40C143.2,205.1,125.3,223,103.2,223.1z
	 M103.2,145.1c-21,0-38,17-38,38s17,38,38,38s38-17,38-38l0,0C141.2,162.1,124.2,145.1,103.2,145.1z"/>
<path class="st0" d="M200.2,338.1c-14.3,0-25.5-4.8-25.5-11s11.2-11,25.5-11s25.5,4.8,25.5,11S214.5,338.1,200.2,338.1z
	 M200.2,318.1c-14.1,0-23.5,4.7-23.5,9s9.4,9,23.5,9s23.5-4.7,23.5-9S214.2,318.1,200.2,318.1z"/>
<path class="st0" d="M539.2,318.1c-42,0-76-34-76-76s34-76,76-76s76,34,76,76C615.1,284,581.1,318,539.2,318.1z M539.2,168.1
	c-40.9,0-74,33.1-74,74s33.1,74,74,74s74-33.1,74-74C613.1,201.2,580,168.1,539.2,168.1L539.2,168.1z"/>
<path class="st0" d="M539.2,168.1c-26,0-47-21-47-47s21-47,47-47s47,21,47,47C586.1,147,565.1,168,539.2,168.1z M539.2,76.1
	c-24.9,0-45,20.1-45,45s20.1,45,45,45s45-20.1,45-45l0,0C584.2,96.2,564,76.1,539.2,76.1z"/>
<path class="st0" d="M517.2,133.1c-5.6,0-10-8.3-10-19s4.4-19,10-19s10,8.3,10,19S522.8,133.1,517.2,133.1z M517.2,97.1
	c-4.3,0-8,7.8-8,17s3.7,17,8,17s8-7.8,8-17S521.5,97.1,517.2,97.1z"/>
<path class="st0" d="M561.2,133.1c-5.6,0-10-8.3-10-19s4.4-19,10-19s10,8.3,10,19S566.8,133.1,561.2,133.1z M561.2,97.1
	c-4.3,0-8,7.8-8,17s3.7,17,8,17s8-7.8,8-17S565.5,97.1,561.2,97.1z"/>
<path class="st0" d="M646.2,324.1c-22.1,0-40-17.9-40-40s17.9-40,40-40s40,17.9,40,40C686.2,306.1,668.3,324,646.2,324.1z
	 M646.2,246.1c-21,0-38,17-38,38s17,38,38,38s38-17,38-38C684.2,263.1,667.2,246.1,646.2,246.1z"/>
<path class="st0" d="M424.9,277.1c-22.1,0.1-40.1-17.7-40.3-39.7s17.7-40.1,39.7-40.3c22.1-0.1,40.1,17.7,40.3,39.7
	c0,0.1,0,0.2,0,0.3C464.7,259.1,446.9,277,424.9,277.1z M424.9,199.1c-21-0.1-38.1,16.8-38.2,37.8c-0.1,21,16.8,38.1,37.8,38.2
	c21,0.1,38.1-16.8,38.2-37.8c0-0.1,0-0.2,0-0.2C462.7,216.1,445.8,199.2,424.9,199.1L424.9,199.1z"/>
<path class="st0" d="M539.2,338.1c-14.3,0-25.5-4.8-25.5-11s11.2-11,25.5-11s25.5,4.8,25.5,11S553.5,338.1,539.2,338.1z
	 M539.2,318.1c-14.1,0-23.5,4.7-23.5,9s9.4,9,23.5,9s23.5-4.7,23.5-9S553.2,318.1,539.2,318.1z"/>
<path class="st0" d="M889.2,321.1c-42,0-76-34-76-76s34-76,76-76s76,34,76,76C965.1,287,931.1,321,889.2,321.1z M889.2,171.1
	c-40.9,0-74,33.1-74,74s33.1,74,74,74s74-33.1,74-74C963.1,204.2,930,171.1,889.2,171.1L889.2,171.1z"/>
<path class="st0" d="M929.2,178.1c-26,0-47-21-47-47s21-47,47-47s47,21,47,47C976.1,157,955.1,178,929.2,178.1z M929.2,86.1
	c-24.9,0-45,20.1-45,45s20.1,45,45,45s45-20.1,45-45l0,0C974.2,106.2,954,86.1,929.2,86.1z"/>
<path class="st0" d="M907.2,161.1c-5.6,0-10-8.3-10-19s4.4-19,10-19s10,8.3,10,19S912.8,161.1,907.2,161.1z M907.2,125.1
	c-4.3,0-8,7.8-8,17s3.7,17,8,17s8-7.8,8-17S911.5,125.1,907.2,125.1z"/>
<path class="st0" d="M951.2,161.1c-5.6,0-10-8.3-10-19s4.4-19,10-19s10,8.3,10,19S956.8,161.1,951.2,161.1z M951.2,125.1
	c-4.3,0-8,7.8-8,17s3.7,17,8,17s8-7.8,8-17S955.5,125.1,951.2,125.1z"/>
<path class="st0" d="M996.2,327.1c-22.1,0-40-17.9-40-40s17.9-40,40-40c22.1,0,40,17.9,40,40C1036.2,309.1,1018.3,327,996.2,327.1z
	 M996.2,249.1c-21,0-38,17-38,38s17,38,38,38s38-17,38-38l0,0C1034.2,266.1,1017.2,249.1,996.2,249.1z"/>
<path class="st0" d="M775.2,280.1c-22.1,0-40-17.9-40-40c0-22.1,17.9-40,40-40s40,17.9,40,40C815.2,262.1,797.3,280,775.2,280.1z
	 M775.2,202.1c-21,0-38,17-38,38s17,38,38,38s38-17,38-38l0,0C813.2,219.1,796.2,202.1,775.2,202.1L775.2,202.1z"/>
<path class="st0" d="M858.7,337.1c-14.3,0-25.5-4.8-25.5-11s11.2-11,25.5-11s25.5,4.8,25.5,11S873,337.1,858.7,337.1z M858.7,317.1
	c-14.1,0-23.5,4.7-23.5,9s9.4,9,23.5,9s23.5-4.7,23.5-9S872.7,317.1,858.7,317.1z"/>
<path class="st1" d="M425.2,121.1c-31.3-33.2-100.1-20.2-100.8-20l-0.4-2c0.7-0.1,70.6-13.3,102.7,20.6L425.2,121.1z"/>
<path class="st1" d="M433.2,130.1c-5.1-3.2-12.3-6.6-18-7.7l9.6-3.1l5.4-8.5C429.9,116.5,431.4,124.3,433.2,130.1z"/>
<path class="st1" d="M739.2,175.1c-31.3-33.2-100.1-20.2-100.8-20l-0.4-2c0.7-0.1,70.6-13.3,102.7,20.6L739.2,175.1z"/>
<path class="st1" d="M747.2,184.1c-5.1-3.2-12.3-6.6-18-7.7l9.6-3.1l5.4-8.5C743.9,170.5,745.4,178.3,747.2,184.1z"/>
<path class="st2" d="M744.8,262.8c0,0-21.2,0-23.5,12.9s-5.9,154.1-3.5,171.8s2.4,14.1,2.4,14.1s-4.7,33.5,5.9,35
	s10.6-38.5,10.6-38.5l8.2-143.5V262.8z"/>
<path class="st2" d="M836.5,262.8c0,0,21.2,0,23.5,12.9s5.9,154.1,3.5,171.8s-2.4,14.1-2.4,14.1s4.7,33.5-5.9,35
	s-10.6-38.5-10.6-38.5l-8.2-143.5V262.8z"/>
<path class="st0" d="M741.2,754.6h-9.4c-11.7,0-21.2,9.5-21.2,21.2c0,0,0,0,0,0v0h57.6v-27.1h-27.1V754.6z"/>
<path class="st0" d="M831.8,754.6h9.4c11.7,0,21.2,9.5,21.2,21.2c0,0,0,0,0,0v0h-57.6v-27.1h27.1V754.6z"/>
<circle class="st2" cx="781.2" cy="205.2" r="30.6"/>
<path class="st2" d="M774.2,221.6c0,0-3.5,38.8-8.2,42.4s49.4-2.4,49.4-2.4s-18.8-28.2-15.3-37.6S774.2,221.6,774.2,221.6z"/>
<path class="st0" d="M843.6,262.8c0,0-64.7-27.1-107.1,0c0,0-10.6,27.1-2.4,42.4s21.2,51.8,8.2,76.5s1.2,14.1,1.2,14.1
	s-16.5,65.9-18.8,117.6c-2.4,51.8,7.1,237.6,14.1,238.8s29.4,3.5,31.8,0s18.8-249.4,18.8-249.4s7.1,251.8,14.1,251.8
	s25.9,0,29.4-5.9s32.9-232.9,22.4-280s-17.6-70.6-17.6-70.6s12.9-8.2,9.4-12.9s-21.2-55.3-12.9-63.5S843.6,262.8,843.6,262.8z"/>
<circle class="st0" cx="800.6" cy="186.7" r="49.4"/>
<path class="st0" d="M831.5,162c-17.3-4.1-28.3-21-25.1-38.5c-0.1,0.5-0.3,1-0.4,1.5c-4.2,17.9,6.9,35.8,24.8,40
	c17.9,4.2,35.8-6.9,40-24.8c0.1-0.5,0.2-1,0.3-1.6C866.2,155.8,848.8,166,831.5,162z"/>
<circle class="st0" cx="833.5" cy="144.2" r="24.2"/>
<rect x="545.7" y="773.6" class="st0" width="434" height="2"/>
<path class="st3" d="M1084.6,733.3c-1,0.9-2,1.8-3.1,2.6c-3.8,3.2-7.8,6-12,8.5c-21.8,13.4-48.6,19.9-74.8,24.3
	c-58.6,10-118.5,11.9-178.1,13.8c-161.1,5.1-322.6,10.3-483.2-1.6c-63.5-4.7-128.4-12.6-185.9-36.5c-8.2-3.4-16.3-7.2-24.3-11.3
	c-16-8.4-31.4-18.6-44.2-30.7c-12.1-11.4-21.8-24.5-27.6-39.4c-12.2-31.1-5.7-65.9,8.2-96.4c5.8-12.4,12.3-24.2,19.5-35.4
	c10.7-17.1,22.5-33.7,33.3-50.9c38.4-61,63.4-138,28-200.4c-10.2-17.9-24.9-33.7-33.2-52.4c-10.6-24-9.8-50.6-6.4-76.5
	c0.4-3.3,0.9-6.5,1.4-9.7c5.8-38.3,16.6-79.6,49.9-103.5c34.6-24.9,83.8-23.6,126.8-14.7c66.9,13.8,128.5,42.7,190.8,68.8
	s127.5,49.9,196,52.5c60.5,2.3,131-14.7,171.1-58.7c39-42.8,112.3-46,165.1-20.2c36.2,17.7,63.3,49.7,74.7,85.6
	c2.3,7.2,4,14.7,5,22.3c0.9,6.9,1.2,14,0.9,21c-0.2,3.4-0.5,6.9-0.9,10.3c-8.8,70.9-72.3,126.8-111,190.2
	c-18.9,30.9-32.2,68.1-19.2,101.4c19.8,50.8,88.6,68.9,130.2,106.7c7.8,6.8,14.7,15,20.4,24.4C1122.1,661,1114.6,706.5,1084.6,733.3
	z"/>
</svg>
