<?xml version="1.0" encoding="utf-8"?>
<!-- Generator: Adobe Illustrator 24.0.1, SVG Export Plug-In . SVG Version: 6.00 Build 0)  -->
<svg version="1.1" id="e5c6fe42-ae74-4efe-bfa8-5003ba06ab4b"
	 xmlns="http://www.w3.org/2000/svg" xmlns:xlink="http://www.w3.org/1999/xlink" x="0px" y="0px" viewBox="0 0 1007.5 267.2"
	 style="enable-background:new 0 0 1007.5 267.2;" xml:space="preserve">
<style type="text/css">
	.st0{fill:#0A0B1C;}
	.st1{fill:#FFFFFF;}
</style>
<title>animating</title>
<g>
	<rect x="38.5" y="263.5" class="st0" width="969" height="2"/>
	<path class="st0" d="M137,244c-42,0-76-34-76-76s34-76,76-76s76,34,76,76S179,244,137,244z M137,94c-40.9,0-74,33.1-74,74
		s33.1,74,74,74s74-33.1,74-74C211,127.2,177.8,94,137,94L137,94z"/>
	<path class="st0" d="M137,76.5c-25.9,0-47-17.2-47-38.3S111.1,0,137,0s47,17.2,47,38.3S162.9,76.5,137,76.5z M137,1.6
		c-24.8,0-45,16.4-45,36.6s20.2,36.6,45,36.6s45-16.4,45-36.6S161.8,1.6,137,1.6z"/>
	<path class="st0" d="M115,59c-5.6,0-10-8.3-10-19s4.4-19,10-19s10,8.3,10,19S120.6,59,115,59z M115,23c-4.3,0-8,7.8-8,17
		s3.7,17,8,17s8-7.8,8-17S119.3,23,115,23z"/>
	<path class="st0" d="M159,59c-5.6,0-10-8.3-10-19s4.4-19,10-19s10,8.3,10,19S164.6,59,159,59z M159,23c-4.3,0-8,7.8-8,17
		s3.7,17,8,17s8-7.8,8-17S163.3,23,159,23z"/>
	<path class="st0" d="M235,149c-22.1,0-40-17.9-40-40s17.9-40,40-40s40,17.9,40,40S257.1,149,235,149z M235,71c-21,0-38,17-38,38
		s17,38,38,38s38-17,38-38l0,0C273,88,256,71,235,71z"/>
	<path class="st0" d="M40,149c-22.1,0-40-17.9-40-40s17.9-40,40-40s40,17.9,40,40S62.1,149,40,149z M40,71C19,71,2,88,2,109
		s17,38,38,38s38-17,38-38l0,0C78,88,61,71,40,71z"/>
	<path class="st0" d="M137,264c-14.3,0-25.5-4.8-25.5-11c0-6.2,11.2-11,25.5-11s25.5,4.8,25.5,11C162.5,259.2,151.3,264,137,264z
		 M137,244c-14.1,0-23.5,4.7-23.5,9c0,4.3,9.4,9,23.5,9s23.5-4.7,23.5-9C160.5,248.7,151.1,244,137,244z"/>
	<path class="st0" d="M476,244c-42,0-76-34-76-76s34-76,76-76s76,34,76,76S518,244,476,244z M476,94c-40.9,0-74,33.1-74,74
		s33.1,74,74,74s74-33.1,74-74C550,127.2,516.8,94,476,94L476,94z"/>
	<path class="st0" d="M476,94c-26,0-47-21-47-47s21-47,47-47s47,21,47,47C523,72.9,501.9,94,476,94z M476,2c-24.9,0-45,20.1-45,45
		s20.1,45,45,45s45-20.1,45-45l0,0C521,22.2,500.8,2,476,2z"/>
	<path class="st0" d="M454,59c-5.6,0-10-8.3-10-19s4.4-19,10-19s10,8.3,10,19S459.6,59,454,59z M454,23c-4.3,0-8,7.8-8,17
		s3.7,17,8,17s8-7.8,8-17S458.3,23,454,23z"/>
	<path class="st0" d="M498,59c-5.6,0-10-8.3-10-19s4.4-19,10-19s10,8.3,10,19S503.6,59,498,59z M498,23c-4.3,0-8,7.8-8,17
		s3.7,17,8,17s8-7.8,8-17S502.3,23,498,23z"/>
	<path class="st0" d="M583,250c-22.1,0-40-17.9-40-40s17.9-40,40-40s40,17.9,40,40S605.1,250,583,250z M583,172c-21,0-38,17-38,38
		s17,38,38,38s38-17,38-38S604,172,583,172z"/>
	<path class="st0" d="M361.8,203c-22.1,0.1-40.1-17.7-40.3-39.7c-0.1-22.1,17.7-40.1,39.7-40.3c22.1-0.1,40.1,17.7,40.3,39.7
		c0,0.1,0,0.2,0,0.3C401.5,185,383.8,202.9,361.8,203z M361.8,125c-21-0.1-38.1,16.8-38.2,37.8s16.8,38.1,37.8,38.2
		s38.1-16.8,38.2-37.8c0-0.1,0-0.2,0-0.2C399.6,142.1,382.7,125.1,361.8,125L361.8,125z"/>
	<path class="st0" d="M476,264c-14.3,0-25.5-4.8-25.5-11c0-6.2,11.2-11,25.5-11s25.5,4.8,25.5,11C501.5,259.2,490.3,264,476,264z
		 M476,244c-14.1,0-23.5,4.7-23.5,9c0,4.3,9.4,9,23.5,9s23.5-4.7,23.5-9C499.5,248.7,490.1,244,476,244z"/>
	<path class="st0" d="M826,247c-42,0-76-34-76-76s34-76,76-76s76,34,76,76S868,247,826,247z M826,97c-40.9,0-74,33.1-74,74
		s33.1,74,74,74s74-33.1,74-74C900,130.2,866.8,97,826,97L826,97z"/>
	<path class="st0" d="M866,104c-26,0-47-21-47-47s21-47,47-47s47,21,47,47C913,82.9,891.9,104,866,104z M866,12
		c-24.9,0-45,20.1-45,45s20.1,45,45,45s45-20.1,45-45l0,0C911,32.2,890.8,12,866,12z"/>
	<path class="st0" d="M844,87c-5.6,0-10-8.3-10-19s4.4-19,10-19s10,8.3,10,19S849.6,87,844,87z M844,51c-4.3,0-8,7.8-8,17
		s3.7,17,8,17s8-7.8,8-17S848.3,51,844,51z"/>
	<path class="st0" d="M888,87c-5.6,0-10-8.3-10-19s4.4-19,10-19s10,8.3,10,19S893.6,87,888,87z M888,51c-4.3,0-8,7.8-8,17
		s3.7,17,8,17s8-7.8,8-17S892.3,51,888,51z"/>
	<path class="st0" d="M933,253c-22.1,0-40-17.9-40-40s17.9-40,40-40s40,17.9,40,40S955.1,253,933,253z M933,175c-21,0-38,17-38,38
		s17,38,38,38s38-17,38-38l0,0C971,192,954,175,933,175z"/>
	<path class="st0" d="M712,206c-22.1,0-40-17.9-40-40s17.9-40,40-40s40,17.9,40,40S734.1,206,712,206z M712,128c-21,0-38,17-38,38
		s17,38,38,38s38-17,38-38l0,0C750,145,733,128,712,128L712,128z"/>
	<path class="st0" d="M795.5,263c-14.3,0-25.5-4.8-25.5-11c0-6.2,11.2-11,25.5-11s25.5,4.8,25.5,11C821,258.2,809.8,263,795.5,263z
		 M795.5,243c-14.1,0-23.5,4.7-23.5,9c0,4.3,9.4,9,23.5,9s23.5-4.7,23.5-9C819,247.7,809.6,243,795.5,243z"/>
</g>
<g>
	<path class="st1" d="M362,47c-31.3-33.2-100.1-20.2-100.8-20l-0.4-2c0.7-0.1,70.6-13.3,102.7,20.6L362,47z"/>
	<path class="st1" d="M370,56c-5.1-3.2-12.3-6.6-18-7.7l9.6-3.1l5.4-8.5C366.7,42.4,368.2,50.2,370,56z"/>
</g>
<g>
	<path class="st1" d="M676,101c-31.3-33.2-100.1-20.2-100.8-20l-0.4-2c0.7-0.1,70.6-13.3,102.7,20.6L676,101z"/>
	<path class="st1" d="M684,110c-5.1-3.2-12.3-6.6-18-7.7l9.6-3.1l5.4-8.5C680.7,96.4,682.2,104.2,684,110z"/>
</g>
</svg>
