<?xml version="1.0" encoding="utf-8"?>
<!-- Generator: Adobe Illustrator 24.0.1, SVG Export Plug-In . SVG Version: 6.00 Build 0)  -->
<svg version="1.1" id="ea1a5787-4807-42ae-aba3-2738e8ad7f96"
	 xmlns="http://www.w3.org/2000/svg" xmlns:xlink="http://www.w3.org/1999/xlink" x="0px" y="0px" viewBox="0 0 1133.9 850.4"
	 style="enable-background:new 0 0 1133.9 850.4;" xml:space="preserve">
<style type="text/css">
	.st0{opacity:0.1;fill:#6C63FF;enable-background:new    ;}
	.st1{fill:none;stroke:#535461;stroke-width:2;stroke-miterlimit:10;}
	.st2{fill:#6C63FF;}
	.st3{opacity:0.25;enable-background:new    ;}
	.st4{fill:#464353;}
	.st5{fill:#514E7F;}
	.st6{opacity:0.1;enable-background:new    ;}
	.st7{opacity:0.5;fill:#6C63FF;enable-background:new    ;}
	.st8{fill:url(#SVGID_1_);}
	.st9{fill:#3F3D56;}
	.st10{fill:#A1616A;}
	.st11{opacity:5.000000e-02;enable-background:new    ;}
	.st12{opacity:0.1;}
</style>
<title>videographer</title>
<path class="st0" d="M1081,763.4c-1,0.9-2,1.8-3.1,2.7c-3.9,3.2-7.9,6.1-12,8.6c-21.9,13.6-48.8,20.2-75.1,24.7
	c-58.9,10.1-119,12.1-178.8,14c-161.7,5.2-323.8,10.4-485.1-1.6C263.2,807,198,799,140.3,774.7c-8.3-3.5-16.4-7.3-24.3-11.5
	c-16.1-8.5-31.5-18.9-44.4-31.3c-12.1-11.6-21.9-25-27.7-40.1c-12.2-31.6-5.8-67.1,8.2-98.1c5.8-12.6,12.4-24.6,19.6-36
	c10.7-17.4,22.6-34.3,33.4-51.7c38.5-62,63.6-140.4,28.1-203.9c-10.3-18.3-25-34.3-33.3-53.3c-10.6-24.4-9.8-51.4-6.4-77.8
	c0.4-3.3,0.9-6.6,1.4-9.9c5.8-39,16.6-81,50.1-105.3c34.8-25.3,84.1-24,127.3-15c67.1,14.1,129,43.5,191.5,70s128,50.8,196.7,53.4
	c60.7,2.3,131.5-14.9,171.8-59.7c39.1-43.5,112.7-46.8,165.7-20.5c36.4,18,63.5,50.5,75,87.1c2.3,7.3,4,14.9,5,22.7
	c0.9,7.1,1.2,14.2,0.9,21.4c-0.2,3.5-0.5,7-0.9,10.4c-8.9,72.1-72.6,129-111.4,193.5c-18.9,31.5-32.3,69.3-19.3,103.2
	c19.9,51.7,88.9,70.1,130.7,108.6c7.8,6.9,14.7,15.3,20.5,24.8C1118.6,689.8,1111.1,736,1081,763.4z"/>
<ellipse class="st0" cx="529.4" cy="738.1" rx="269.6" ry="9.2"/>
<g id="_x35_5bfdb31-36b5-4718-97dd-773b4157bdc7">
	<path class="st1" d="M743.6,732c0,0,58-73.5,53.5-146.5c-1.9-30.7,5.7-61.2,22.5-86.8c8-12.2,17.1-23.6,27.3-34.1"/>
	<path class="st2" d="M844.4,418.6c-4.1,10.2,2.5,47.3,2.5,47.3s30.4-22.2,34.5-32.4c4.1-10.2-0.9-21.8-11.1-25.9
		S848.4,408.3,844.4,418.6L844.4,418.6L844.4,418.6z"/>
	<path class="st2" d="M791.1,462.9c2.1,10.8,27.8,38.3,27.8,38.3s13.5-35.1,11.3-45.9c-2.2-10.8-12.8-17.7-23.6-15.5
		C796,442,789.1,452.2,791.1,462.9L791.1,462.9z"/>
	<path class="st2" d="M753.6,560.1c7.3,8.3,43.3,19,43.3,19s-6.1-37.1-13.4-45.4c-7.3-8.3-19.9-9.1-28.1-1.8
		S746.3,551.7,753.6,560.1L753.6,560.1L753.6,560.1z"/>
	<path class="st2" d="M741.8,640c5.8,9.4,39.5,26.1,39.5,26.1s0.2-37.6-5.5-47c-5.7-9.4-18-12.4-27.4-6.7c-9.4,5.7-12.4,18-6.7,27.4
		C741.7,639.8,741.7,639.9,741.8,640z"/>
	<path class="st2" d="M856.9,518.7c-10.2,4.2-47.3-2.2-47.3-2.2s22-30.5,32.2-34.7c10.2-4,21.8,1,25.8,11.3
		C871.6,503.2,866.8,514.5,856.9,518.7z"/>
	<path class="st2" d="M841.9,612c-11,0.9-44.5-16.2-44.5-16.2s30.1-22.6,41.1-23.5c11-1.1,20.7,6.9,21.9,17.8s-6.9,20.7-17.8,21.9
		C842.4,612,842.2,612,841.9,612z"/>
	<path class="st2" d="M814.8,700.7c-10.7,2.8-46.5-8.5-46.5-8.5s25.9-27.3,36.5-30.1c10.7-2.5,21.4,4.2,23.9,14.9
		C831.1,687.4,825,697.8,814.8,700.7L814.8,700.7z"/>
	<path class="st3" d="M844.4,418.6c-4.1,10.2,2.5,47.3,2.5,47.3s30.4-22.2,34.5-32.4c4.1-10.2-0.9-21.8-11.1-25.9
		S848.4,408.3,844.4,418.6L844.4,418.6L844.4,418.6z"/>
	<path class="st3" d="M791.1,462.9c2.1,10.8,27.8,38.3,27.8,38.3s13.5-35.1,11.3-45.9c-2.2-10.8-12.8-17.7-23.6-15.5
		C796,442,789.1,452.2,791.1,462.9L791.1,462.9z"/>
	<path class="st3" d="M753.6,560.1c7.3,8.3,43.3,19,43.3,19s-6.1-37.1-13.4-45.4c-7.3-8.3-19.9-9.1-28.1-1.8
		S746.3,551.7,753.6,560.1L753.6,560.1L753.6,560.1z"/>
	<path class="st3" d="M741.8,640c5.8,9.4,39.5,26.1,39.5,26.1s0.2-37.6-5.5-47c-5.7-9.4-18-12.4-27.4-6.7c-9.4,5.7-12.4,18-6.7,27.4
		C741.7,639.8,741.7,639.9,741.8,640z"/>
	<path class="st3" d="M856.9,518.7c-10.2,4.2-47.3-2.2-47.3-2.2s22-30.5,32.2-34.7c10.2-4,21.8,1,25.8,11.3
		C871.6,503.2,866.8,514.5,856.9,518.7z"/>
	<path class="st3" d="M841.9,612c-11,0.9-44.5-16.2-44.5-16.2s30.1-22.6,41.1-23.5c11-1.1,20.7,6.9,21.9,17.8s-6.9,20.7-17.8,21.9
		C842.4,612,842.2,612,841.9,612z"/>
	<path class="st3" d="M814.8,700.7c-10.7,2.8-46.5-8.5-46.5-8.5s25.9-27.3,36.5-30.1c10.7-2.5,21.4,4.2,23.9,14.9
		C831.1,687.4,825,697.8,814.8,700.7L814.8,700.7z"/>
	<path class="st1" d="M744.1,728.9c0,0,82.8-43.7,108.3-112.2c10.7-28.8,30-53.6,55.8-70.3c12.3-7.9,25.2-14.6,38.7-20.1"/>
	<path class="st2" d="M963.2,483.2c-7.9,7.7-16.9,44.2-16.9,44.2s36.8-8,44.7-15.6c7.8-7.8,7.8-20.4,0-28.2
		C983.4,475.9,971.1,475.8,963.2,483.2z"/>
	<path class="st2" d="M896.6,502.1c-2.5,10.7,9.9,46.3,9.9,46.3s26.5-26.7,29-37.4c2.7-10.7-3.8-21.5-14.5-24.2
		c-10.7-2.7-21.5,3.8-24.2,14.5C896.7,501.6,896.6,501.8,896.6,502.1L896.6,502.1z"/>
	<path class="st2" d="M822.9,575.8c3.3,10.5,31.9,35,31.9,35s9.4-36.4,6.1-46.9c-3.1-10.6-14.1-16.6-24.7-13.6
		c-10.6,3.1-16.6,14.1-13.6,24.7C822.8,575.3,822.9,575.6,822.9,575.8L822.9,575.8z"/>
	<path class="st2" d="M779.7,644.1c1.5,10.9,25.5,39.8,25.5,39.8s15.5-34.3,14-45.2c-1.5-10.9-11.5-18.6-22.4-17.1
		S778.2,633.2,779.7,644.1L779.7,644.1z"/>
	<path class="st2" d="M934.1,579.9c-11-0.3-42.3-21.1-42.3-21.1s32.5-19,43.5-18.7c11,0.5,19.5,9.8,19.1,20.8
		C953.8,571.6,944.9,580,934.1,579.9z"/>
	<path class="st2" d="M882.6,659.1c-10.4-3.6-34.1-32.8-34.1-32.8s36.7-8.4,47.1-4.8c10.3,3.8,15.6,15.3,11.8,25.6
		C903.6,657,892.7,662.3,882.6,659.1L882.6,659.1z"/>
	<path class="st2" d="M821.9,729.2c-10.9-1.8-39.1-26.6-39.1-26.6s34.7-14.5,45.6-12.7c10.8,2,18,12.3,16,23.2
		C842.5,723.6,832.5,730.7,821.9,729.2z"/>
</g>
<polygon class="st4" points="751.4,735 742.5,735 677.6,400.1 669.3,735 659.9,735 649.4,400.7 586.1,735 576.2,735 619.1,390.8 
	620.5,379.6 704.8,370.2 707.4,390.8 "/>
<rect x="518.7" y="303" class="st4" width="53.7" height="33.3"/>
<path class="st4" d="M830,288.5l32.4-13.1h7.1c2.2,0,3.9,1.8,3.9,3.9v91.4c0,2.2-1.8,3.9-3.9,3.9h-7.1L830,361.1V288.5z"/>
<rect x="763.6" y="292.6" class="st4" width="66.3" height="64.2"/>
<rect x="648.5" y="172" class="st5" width="42.7" height="7.8"/>
<rect x="599.8" y="182" class="st5" width="120.2" height="87.8"/>
<rect x="599.8" y="259.4" class="st6" width="120.2" height="10.4"/>
<rect x="762.6" y="292.6" class="st6" width="2.7" height="64.2"/>
<rect x="554" y="303" class="st6" width="18.3" height="33.3"/>
<polygon class="st6" points="707.4,390.8 619.1,390.8 620.5,379.6 704.8,370.2 "/>
<path class="st5" d="M566.4,261h186.5c5.9,0,10.7,4.8,10.7,10.7v106.7c0,5.9-4.8,10.7-10.7,10.7H566.4c-5.9,0-10.7-4.8-10.7-10.7
	V271.7C555.7,265.8,560.5,261,566.4,261z"/>
<path class="st5" d="M829.3,288.5h0.6l0,0v72.6l0,0h-0.6c-2.9,0-5.2-2.3-5.2-5.2l0,0v-62.2C824.2,290.8,826.5,288.5,829.3,288.5z"/>
<path class="st5" d="M862.4,275.4h6.7c2.4,0,4.3,1.9,4.3,4.3v90.6c0,2.4-1.9,4.3-4.3,4.3h-6.7l0,0V275.4L862.4,275.4z"/>
<rect x="518.7" y="303" class="st6" width="9.6" height="33.3"/>
<path class="st5" d="M515.1,292.6h4.3c4,0,7.2,3.2,7.2,7.2V342c0,4-3.2,7.2-7.2,7.2h-4.3c-4,0-7.2-3.2-7.2-7.2v-42.2
	C507.9,295.9,511.1,292.6,515.1,292.6z"/>
<circle class="st4" cx="599.8" cy="182" r="59.9"/>
<circle class="st2" cx="599.8" cy="182" r="44.9"/>
<circle class="st4" cx="710.8" cy="183.3" r="43.7"/>
<circle class="st2" cx="710.8" cy="183.3" r="32.8"/>
<circle class="st2" cx="707.4" cy="280.1" r="5.8"/>
<circle class="st7" cx="725.7" cy="280.1" r="5.8"/>
<linearGradient id="SVGID_1_" gradientUnits="userSpaceOnUse" x1="493.3772" y1="-3.2272" x2="493.3772" y2="640.7626" gradientTransform="matrix(1 0 0 -1 -24.78 738.5035)">
	<stop  offset="0" style="stop-color:#808080;stop-opacity:0.25"/>
	<stop  offset="0.54" style="stop-color:#808080;stop-opacity:0.12"/>
	<stop  offset="1" style="stop-color:#808080;stop-opacity:0.1"/>
</linearGradient>
<path class="st8" d="M653.4,299.9l-0.4-0.8c2.5,0.8,5,2,7.3,3.3c-1-8.7-34.3-33.1-40.3-33.1S607.2,259,607.2,259s-17.3-2.7-20-5.5
	s-20.7-1.2-25-0.2s-11-2.7-11-2.7s-3.7-6-8.3-6s-9.7-6.7-9.7-6.7s-4.3-4-8.3-4.7s-9-5-11.3-8.4c-2.3-3.4-14-5-20.7-4
	s-24.7-1.4-24.7-1.4c7.3-3.3,9.1-11.4,9.1-11.4c-6.6-0.3-23.8-14.8-23.8-14.8s0.7,4.7,1.5,11.2l-1.1-1.4l-0.1,0.1
	c-0.4-4.7-0.4-9.3-0.1-14c0-0.4,0.1-0.7,0.1-1.1c8.7-7.6,12.5-19.4,9.8-30.7c-0.2-0.8-0.4-1.5-0.6-2.2c1.3,0.5,2.6,0.9,4,1h0.7
	c1.7,0,3.3-0.7,4.4-1.9l0,0c0.2-0.2,0.4-0.5,0.5-0.8c0-0.1,0.1-0.1,0.1-0.2c0.1-0.2,0.2-0.5,0.3-0.8c0-0.1,0.1-0.2,0.1-0.3
	c0.1-0.2,0.1-0.4,0.1-0.6c0-0.2,0-0.4,0-0.5s0-0.3,0-0.4c0-1.5-0.4-3.1-1-4.5c-1-2.6-2.6-5.1-2.5-7.9c0-0.2,0-0.4,0.1-0.7
	c0.3-2.2,1.4-4.2,2.1-6.3v-0.1c0.1-0.3,0.2-0.6,0.3-0.9c0-0.1,0.1-0.2,0.1-0.3c0.1-0.4,0.1-0.7,0.1-1.1c0,0,0-0.1,0-0.1
	c0.3-4.2-3.1-7.8-6.9-9.5c-3.4-1.5-7.3-1.9-10.5-4c-3.6-2.4-5.5-6.4-8.2-9.8c-3.8-4.9-9.9-8.6-16-7.9c-3.8,0.4-7.2,2.4-11,3.2
	c-5.7,1.2-11.8-0.5-17.5,0.8c-1.4,0.2-2.6,0.9-3.6,2c-0.4,0.5-0.6,1.2-0.7,1.8l0,0c-0.1,0.6-0.1,1.2,0,1.8v0.1
	c0.1,0.6,0.2,1.1,0.3,1.7l0.1,0.4c0,0.1,0,0.2,0.1,0.4s0.1,0.5,0.2,0.7c0.1,0.4,0.2,0.8,0.3,1.2v0.1c0.1,0.4,0.2,0.8,0.3,1.2l0,0
	c0.2,0.9,0.3,1.7,0.3,2.6l0,0c0.2,2.5-0.3,5-1.5,7.1c-2.5,4-7.8,5.8-10.1,9.9c-0.5,1-0.9,2.1-1,3.3l0,0c0,0.4-0.1,0.8,0,1.1v0.1
	c0,0.3,0,0.7,0.1,1c0,0.1,0,0.2,0,0.2c0.1,0.3,0.1,0.6,0.2,0.9c0,0.1,0,0.2,0.1,0.3c0.1,0.3,0.2,0.7,0.4,1l0,0
	c1.1,2.2,3.1,4.1,3.5,6.5l0,0c0,0.1,0,0.1,0,0.2c0.2,1.8-0.5,3.6-0.9,5.4c-0.1,0.2-0.1,0.4-0.1,0.7l0,0c0,0.1,0,0.1,0,0.2
	s0,0.3,0,0.5s0,0.2,0,0.3s0,0.3,0,0.4c0,0.1,0,0.2,0,0.3c0,0.1,0,0.3,0,0.4s0,0.2,0,0.3s0.1,0.3,0.1,0.4l0.1,0.3
	c0,0.1,0.1,0.2,0.2,0.4l0.1,0.2c0.1,0.1,0.2,0.2,0.2,0.4c0,0.1,0.1,0.1,0.1,0.2c0.1,0.2,0.3,0.3,0.5,0.4c1.4,1,3.5,0.7,4.7,2
	c0.1,0.2,0.2,0.3,0.3,0.5l0.1,0.1c0.1,0.2,0.1,0.4,0.2,0.6l0,0c0.2,0.8,0.2,1.5,0,2.3c-0.4,2-1.3,3.8-1.7,5.8
	c-0.1,0.4-0.1,0.8-0.2,1.2l0,0c0,0.2,0,0.4,0,0.6v0.1c0,0.2,0,0.4,0,0.5s0,0.1,0,0.1c0,0.3,0,0.5,0.1,0.8s0,0.2,0.1,0.4l0.1,0.3
	c0,0.1,0.1,0.3,0.1,0.4l0.1,0.3c0,0.1,0.1,0.3,0.2,0.4c0,0.1,0.1,0.1,0.1,0.2c0.1,0.2,0.2,0.4,0.4,0.6c1.2,1.6,3.2,2.2,5.3,2.2
	c1.2,0,2.4-0.1,3.5-0.4c0.3,0.6,0.5,1.2,0.8,1.8c1.4,2.9,3.3,5.6,5.6,7.9c0,0.3-0.1,0.6-0.1,0.9c-0.2,2.3-0.5,4.7-0.8,7.2
	c-2.6-1.2-4.6-1.6-5.4-0.8c-3.4,3.7,0,16.4,0,16.4s-16.4,0-20.4,3.7s-11.3,0-11.3,0s-15,1.7-14,4.7s-8,0-8,0s-6.3,0.7-6,5
	s-9.7,6.3-8.3,9.3c1.3,3-6,5-6,5s-7.3-0.3-4.7,4l0,0c0,0-4,9.4-7.3,10s-7.7,8.4-7.7,8.4s-12.8,2.3-12.3,6.4s-19.7,32.7-19.7,32.7
	s-6.7,13.8-2,23.8s8,16.7,9,20.4s13.1,19.8,13,22.8c0,0.9,3,6,7.1,12.4l-1.2,1.2l-2.6,2.7c0,0-8.3,20.7,1.7,21.7
	c8.5,0.8,14.5,1.5,17.6,0.6c0.5-0.1,1-0.3,1.4-0.6l0.1-0.1c3.6,5.4,6.2,9.1,6.2,9.1s0.4-0.5,1-1.4l1,1.4c0,0,0.8-1.1,2.2-3
	c-0.4,9.1-0.5,18-0.5,18s4.3-0.7,2.3,19.4s12,36.4,12,36.4V514l0,0c0,0,0,0.8,0.1,2c0.4,4.3,1.6,14.3,5.2,21c4.7,8.7,0,31.4,0,31.4
	s-0.3,18.5,0.8,41.7c0,0.6,0.1,1.3,0.1,1.9c-20.2,16.9-41.9,39.3-41.9,39.3c1.1,0.3,2.1,0.8,3,1.3l-1.2,1.6l-5.5,6.8l0,0l-4.3,5.3
	l0,0l6.8,20.8l7.4-2.9c0,0,4,6.9,3.2,11.6c-0.1,0.8-0.5,1.7-1,2.3c-0.3,0.3-0.4,0.7-0.5,1.2c-1.9,7.5,6.1,40,18.9,41.4
	c0,0,4.3,1.4,5.7-2.5c0.7-1.9,0.7-5-0.8-10.1c0,0-6.8-8.1-2.4-16.9c2.6-5.1,6.8-12,9.9-16.8l1.3-2c2.8,3.5,4.4,5.7,4.4,5.7l9.8-10.6
	c0.2,0.5,0.4,0.9,0.6,1.3c0.7,1.5,1.6,2.9,2.5,4.2l6.7,26.4l2.7-0.6c-0.1,0.6-0.1,1.3-0.1,2c-0.2,4.7,0,10.9,2.2,15.3
	c1.6,3.4,4.4,5.7,8.9,5.6c15.5-0.4,20-8.8,20-8.8v-21l5.3-1.2c0,0-0.4-46.1-1.8-71.9c0-0.6-0.1-1.1-0.1-1.7c0-0.1,0-0.2,0-0.2
	l34.2-36.8l2.6-1c22-8.7,22.3-31.1,22.3-31.1s0-12.4,2.7-22.7s0.3-64.2-4.7-77.5s-6.7-28.4-6.7-28.4s5-7,0-12.8
	c-1.4-1.7-2.6-3.7-3.5-5.7l6.5-1.1l3.8-0.6l2-0.3c-1,8.8-1.2,15.6,1.2,17.3c7.3,5,32-11.7,32-11.7c-9,0-14-67.2-12.2-68.8
	s4.6-35.3,2.2-41.3s8.4-32.8,8.4-32.8l1.7-2.5l0,0c0,0,39.3,17.2,43.7,20.5s18-8,20.3-3.6s17,10.9,17,10.9s21.7-2.2,24,3.2
	s16.3,17.9,16.3,17.9c0-2.9,0.2-5.9,0.5-8.8c0.3,0.7,0.6,1.4,0.9,2.1c6.6,15.7,17.7,35.6,27.9,24.9
	C667.9,333.7,659,311.3,653.4,299.9z M356.9,370.9v0.2l-0.1-0.1L356.9,370.9z M349.1,293.9l-4.2,44.7l-8.3,8.6l-1,1.1l-8.6-9.4
	c0,0-4.3-2,0-5.7s-7.3-12-7.3-12s-0.3-6,4-7.7s10-12.7,10-12.7l15.7-8l0,0l0,0L349.1,293.9z M404.9,522.7c0.3-0.3,0.6-0.5,1-0.7
	c1.9-1.1,3.1,0.1,3.7,2.1c0.8,3.4,0.6,7-0.7,10.3c-2.3,5.3,3.3,26.7,3.3,26.7s-7.3,3.3-8.7,9.7c-0.2,0.8-0.5,1.5-1,2.2
	c-0.1-0.6-0.2-1.1-0.3-1.6c-0.6-4-1-6.6-1-6.6c-1.2-5.1-1.4-10.5-0.7-15.7c1.1-6.4,3.2-19.5,4-24.4
	C404.8,523.5,404.9,522.7,404.9,522.7L404.9,522.7z"/>
<path class="st4" d="M451.3,197.1l2.2-1.4l6.1,12.9l-2.3,2.8h-7.1c0,0,0.3-7,0.4-7.3S451.3,197.1,451.3,197.1z"/>
<path class="st9" d="M409.5,706.5V734c0,0-4.5,8.4-20,8.8c-3.9,0.2-7.4-2-8.9-5.6c-2.2-4.4-2.4-10.5-2.2-15.3
	c0.1-2.4,0.4-4.7,0.8-7.1L409.5,706.5z"/>
<path class="st6" d="M409.5,706.5v8.5l-31.1,6.9c0.1-2.4,0.4-4.7,0.8-7.1L409.5,706.5z"/>
<path class="st5" d="M414.9,711.8l-39,8.7l-6.7-26.3c-1-1.3-1.8-2.7-2.5-4.2c-0.4-0.8-0.9-1.7-1.3-2.7
	c-7.3-16.6-10.5-46.6-11.9-72.1c-0.1-1.3-0.1-2.6-0.2-3.8c-1.1-23.1-0.8-41.6-0.8-41.6s4.7-22.7,0-31.3c-3.6-6.7-4.8-16.7-5.2-21
	c-0.1-1.3-0.1-2-0.1-2l0.7-1.9l2.9-7.8h32.3l18.8,15.9l2.9,2.4l-0.3,2c-0.8,4.9-3,18-4,24.4c-0.8,5.2-0.5,10.5,0.7,15.7
	c0,0,0.4,2.5,1,6.6c0.1,1,0.3,2.1,0.5,3.2c2.4,14.8,6.9,41.8,8.8,48.2c0.5,1.8,1,6.2,1.4,12.2c0.1,1.2,0.1,2.5,0.2,3.8
	C414.5,665.8,414.9,711.8,414.9,711.8z"/>
<path class="st6" d="M409.5,733.7v0.3c0,0-4.5,8.4-20,8.8c-3.9,0.2-7.4-2-8.9-5.6C387.6,738.9,398.8,740,409.5,733.7z"/>
<path class="st10" d="M656.2,347.8c-10.3,10.7-21.3-9.2-27.9-24.8c-3.7-8.8-6.1-16.3-6.1-16.3l27.4-11.6c0,0,1.7,2.7,3.8,6.9
	C659,313.2,667.9,335.7,656.2,347.8z"/>
<path class="st10" d="M453.7,191.6c-0.4,9.9,0.3,19.8,2.2,29.5c0,0-55.7,6-50.7-2.7c2.9-5.1,4.8-18.5,5.9-28.7
	c0.8-7.3,1.1-12.9,1.1-12.9s53.3-21.3,45.3-3.3C455.1,178.8,454,185.2,453.7,191.6z"/>
<polygon class="st4" points="458.4,334.8 450.9,424.1 485.2,418.5 479.2,344.8 481.2,325.1 "/>
<polygon class="st6" points="485.2,418.6 470.3,421.1 450.9,424.3 452.2,408 458.4,334.9 466.1,331.6 471.7,329.3 481.2,325.3 
	479.2,344.9 "/>
<path class="st9" d="M340.7,712.2c-4.4,8.8,2.4,16.9,2.4,16.9c1.5,5.1,1.5,8.2,0.8,10c-1.4,3.9-5.7,2.5-5.7,2.5
	c-13.6-1.5-21.9-38.2-18.4-42.5s-2.1-13.9-2.1-13.9l-7.4,2.9l-6.8-20.7l4.3-5.3l5.5-6.8l3.7-4.6l37.3,38.9c0,0-1.6,2.4-3.8,5.8
	C347.4,700.2,343.2,707.1,340.7,712.2z"/>
<path class="st6" d="M413.1,640.1l-46.4,49.8c-8.1-15.9-11.6-47.8-13.1-74.7c8.6-7.2,17-13.4,23.3-16.4c0,0,21.4-15.5,25.9-22.9
	c2.4,14.8,6.9,41.8,8.8,48.2C412.2,626.2,412.7,632.2,413.1,640.1z"/>
<polygon class="st6" points="402,521.7 347.9,513.6 350.9,505.8 383.2,505.8 "/>
<path class="st6" d="M412.9,636.3l-47.5,50.9c-7.3-16.6-10.5-46.6-11.9-72.1c-0.1-1.3-0.1-2.6-0.2-3.8c8.7-7.3,17.2-13.5,23.5-16.6
	c0,0,20-14.4,25.4-22.1c0.1,1,0.3,2.1,0.5,3.2c2.4,14.8,6.9,41.8,8.8,48.2C412.1,625.9,412.5,630.3,412.9,636.3z"/>
<path class="st6" d="M354.3,689.6c0,0-1.6,2.4-3.8,5.8c-8-10-26.8-33.2-37.2-40.1l3.7-4.6L354.3,689.6z"/>
<path class="st5" d="M474.9,546.8c-2.7,10.3-2.7,22.7-2.7,22.7s-0.3,22.3-22.3,31l-2.6,1l-91,97.6c0,0-33.7-44-44.7-46.7
	c0,0,44.3-45.7,65.3-55.7c0,0,25.3-18.3,26.7-24.7s8.7-9.7,8.7-9.7s-5.7-21.3-3.3-26.7c1.3-3.3,1.5-6.8,0.7-10.3
	c-0.6-2-1.8-3.2-3.7-2.1c-0.4,0.2-0.7,0.4-1,0.7l-57.7-8.7v-29.6c0,0-14-16.3-12-36.3s-2.3-19.3-2.3-19.3s0.2-33.8,3.1-36.6
	s30.2-15.7,30.2-15.7L452,393l3.5,16.4c0,0,3,13.1,8,18.9s0,12.8,0,12.8s1.7,15,6.7,28.4S477.5,536.5,474.9,546.8z"/>
<path class="st6" d="M457.5,173.5c-2.4,5.4-3.5,11.8-3.9,18.1c-12.4,10.8-31.1,10-42.6-1.9c0.8-7.3,1.1-12.9,1.1-12.9
	S465.5,155.5,457.5,173.5z"/>
<path class="st10" d="M464.4,167.2c0,17.1-13.9,31-31,31s-31-13.9-31-31c0-17.1,13.9-31,31-31c14.3,0,26.8,9.8,30.1,23.7
	C464.1,162.3,464.4,164.7,464.4,167.2z"/>
<path class="st6" d="M439.2,221.1c0,0-22.3-10.3-23.7-11.7s-47.6,117.3-47.6,117.3l-13,59c0,0,69.3,29.7,84.3,25.7s16.3,0,16.3,0
	s15.3-86,20.3-93.7s-4.7-85.7-4.7-85.7l-17.3-22.7L439.2,221.1z"/>
<path class="st6" d="M439.2,217.1c0,0-22.3-10.3-23.7-11.7s-47.6,117.3-47.6,117.3l-13,59c0,0,69.3,29.7,84.3,25.7s16.3,0,16.3,0
	s15.3-86,20.3-93.7s-4.7-85.7-4.7-85.7l-17.3-22.7L439.2,217.1z"/>
<path class="st2" d="M475.9,315.8c-1,1.6-2.5,6.5-4.2,13.4c-1.2,4.8-2.5,10.4-3.8,16.5c-5.9,27.5-12.4,63.8-12.4,63.8
	s-0.4-1.2-3.3-1.6c-2.3-0.3-6.3-0.1-13,1.6c-15,4-84.3-25.7-84.3-25.7l2-9l11-50c0,0,46.3-118.7,47.7-117.3c0.8,0.8,9.5,5,16.1,8.1
	c4.2,2,7.6,3.6,7.6,3.6l14-11.1l0.8-0.6l17.3,22.7C471.3,230.1,480.9,308.1,475.9,315.8z"/>
<path class="st6" d="M422.9,230.8c2,7.7-2.7,20.3-2.7,20.3s-16,39.3-20.7,57.5s-31.4,54.8-31.4,54.8s-3.9,3.9-9.4,9.4
	c-0.6,0.6-1.3,1.2-1.9,1.9l11-50c0,0,46.3-118.7,47.7-117.3c0.8,0.8,9.5,5,16.1,8.1C427.5,219.3,421.5,225.7,422.9,230.8z"/>
<path class="st4" d="M420.9,230.8c2,7.7-2.7,20.3-2.7,20.3s-16,39.3-20.7,57.5s-31.4,54.8-31.4,54.8s-3.9,3.9-9.4,9.4
	c-0.6,0.6-1.3,1.3-2,2c-10.7,10.7-25.8,25.6-30.5,30c-0.7,0.6-1.2,1.1-1.4,1.2c-0.4,0.3-0.9,0.5-1.4,0.6c-3.1,0.8-9.1,0.2-17.6-0.6
	c-10-1-1.7-21.7-1.7-21.7l2.6-2.7l2.4-2.5l27.2-28l2-2.1l8.3-8.6l4.2-44.6l0.1-1.1c0,0-1.2-2.8-3.1-7.1
	c-5.1-11.7-15.1-34.3-18.8-41.5c-0.4-0.9-0.8-1.5-1-1.9c0,0,0-0.1-0.1-0.1c-2.7-4.3,4.7-4,4.7-4s7.3-2,6-5s8.7-5,8.3-9.3s6-5,6-5
	s9,3,8,0s14-4.7,14-4.7s7.3,3.7,11.3,0s20.4-3.7,20.4-3.7s-3.4-12.7,0-16.3s28.5,16.3,28.5,16.3S418.9,223.1,420.9,230.8z"/>
<path class="st6" d="M337.5,401.5c0,0,27.7,39,47,26.3s-26-45.7-26-45.7L337.5,401.5z"/>
<path class="st10" d="M337.5,399.5c0,0,27.7,39,47,26.3s-26-45.7-26-45.7L337.5,399.5z"/>
<path class="st6" d="M470.3,420.9c2.1-18.4,8.2-46.1,3.2-54.5c-2.5-4.2-4.3-12.1-5.6-20.8c-0.7-4.7-1.3-9.6-1.8-14.2
	c-1.2-12.3-1.6-22.9-1.6-22.9s-12-53.5-9.7-64.5c1.5-6.9-0.2-24.1-1.7-36.1l0.8-0.6l17.3,22.7c0,0,9.7,78,4.7,85.7
	c-1,1.6-2.5,6.5-4.2,13.4l9.5-4l-2,19.7l6,73.7L470.3,420.9z"/>
<path class="st4" d="M453.5,195.7c0,0,17.2,14.4,23.8,14.8c0,0-1.8,8-9.1,11.3c0,0,18,2.4,24.7,1.4s18.3,0.6,20.7,4
	c2.3,3.4,7.4,7.7,11.4,8.3s8.3,4.7,8.3,4.7l-29.3,43.3c0,0-10.7,26.7-8.3,32.7s-0.3,39.7-2.2,41.3s3.2,68.7,12.2,68.7
	c0,0-24.7,16.7-32,11.7s9.3-59,2-71.3s-9-57.8-9-57.8s-12-53.5-9.7-64.5S453.5,195.7,453.5,195.7z"/>
<path class="st6" d="M653.4,301.9c-8.9-2.8-22.6-2.9-25.1,21c-3.7-8.8-6.1-16.3-6.1-16.3l27.4-11.6
	C649.6,295,651.2,297.7,653.4,301.9z"/>
<path class="st4" d="M516.9,238.1l16.3,2c0,0,5,6.7,9.7,6.7s8.3,6,8.3,6s6.7,3.7,11,2.7s22.3-2.6,25,0.2s20,5.5,20,5.5
	s6.7,10.3,12.7,10.3s39.3,24.3,40.3,33c0,0-33-21-33.3,25.2c0,0-14-12.5-16.3-17.8s-24-3.2-24-3.2s-14.7-6.5-17-10.8
	s-16,6.9-20.3,3.6S505.6,281,505.6,281l-12.2-22.9L516.9,238.1z"/>
<circle class="st9" cx="441.5" cy="275.8" r="2.8"/>
<circle class="st9" cx="438.7" cy="334.9" r="2.8"/>
<circle class="st9" cx="441.5" cy="303.8" r="2.8"/>
<circle class="st9" cx="433.4" cy="366" r="2.8"/>
<path class="st6" d="M343.9,739.1c-1.4,3.9-5.7,2.5-5.7,2.5c-13.6-1.5-21.9-38.2-18.4-42.5s-2.2-13.9-2.2-13.9l-7.4,2.9l-6.8-20.7
	l4.3-5.3c4.2,7.3,10.3,17.9,11.7,20.6c2.7,5.6,4,11.8,3.8,18C323.1,707.2,330.6,738.3,343.9,739.1z"/>
<path class="st6" d="M463.5,159.9c-0.7-0.2-1.4-0.5-2-0.8c-2.3-0.9-4.7-2-6.1-4c-1.3-1.9-1.7-4.5-3.7-5.5c-2.3-1.2-5,0.4-7.5,1
	c-2.9,0.7-6-0.1-8.9-1.2c-4.3-1.6-10.2-4.5-14.6-1.5c-3.4,2.3-2.1,7.2-3,10.8c-1.4,5.4-7.1,9-8.2,14.5c-0.5,2.4-0.2,5.4-2.1,6.9
	c-0.6,0.4-1.2,0.7-1.9,0.8c-7.6-15.4-1.3-33.9,14.1-41.5c15.4-7.6,33.9-1.3,41.5,14.1C462.2,155.5,463,157.7,463.5,159.9
	L463.5,159.9z"/>
<path class="st4" d="M435.4,147.4c2.8,1.1,5.9,1.9,8.9,1.2c2.5-0.6,5.2-2.2,7.5-1c2,1.1,2.4,3.7,3.7,5.5c1.4,2,3.8,3.1,6.1,4
	c1.7,0.8,3.5,1.3,5.4,1.5c1.9,0.2,3.8-0.5,5.1-1.9c1.8-2.1,1.2-5.4,0.2-7.9s-2.6-5.1-2.5-7.9c0.1-3.3,2.5-6.2,2.7-9.5
	c0.3-4.2-3.1-7.8-6.9-9.5c-3.4-1.5-7.3-1.9-10.5-4c-3.6-2.3-5.5-6.4-8.2-9.8c-3.8-4.9-9.9-8.5-16-7.8c-3.8,0.4-7.2,2.4-11,3.2
	c-5.7,1.2-11.8-0.5-17.5,0.8c-1.4,0.2-2.6,0.9-3.6,1.9c-1.4,1.9-0.7,4.5-0.1,6.8c1.1,4.1,1.6,8.7-0.6,12.3c-2.5,4-7.8,5.8-10.1,9.9
	c-1.4,2.5-1.4,5.5-0.2,8c1.1,2.3,3.2,4.2,3.6,6.7c0.2,1.8-0.5,3.6-0.9,5.4s-0.3,4,1.2,5s3.5,0.8,4.7,2c0.7,1,0.9,2.3,0.5,3.4
	c-0.4,2-1.3,3.8-1.7,5.8c-0.6,1.9-0.3,4,0.8,5.8c1.9,2.6,5.9,2.5,9,1.8c0.9-0.1,1.8-0.5,2.5-1c2-1.5,1.6-4.5,2.1-6.9
	c1.1-5.5,6.9-9.1,8.2-14.5c0.9-3.5-0.5-8.4,3-10.8C425.2,142.9,431.1,145.8,435.4,147.4z"/>
<path class="st6" d="M430.5,509.1c0,0,31.4,20,32.4,27.7L430.5,509.1z"/>
<path class="st6" d="M428.9,525.1c0,0,36,17.3,34,23.3L428.9,525.1z"/>
<path class="st6" d="M426.5,540.5c0,0,20.3,10.7,21.7,17L426.5,540.5z"/>
<path class="st6" d="M435.2,564.5c0,0,13.3,11.7,16,8.7S435.2,564.5,435.2,564.5z"/>
<path class="st6" d="M416.5,571.8c0,0,10.4,16.7,5.4,17.7S416.5,571.8,416.5,571.8z"/>
<path class="st6" d="M370.9,275.8c0,0-17.7,10.7-12.3,13.3S370.9,275.8,370.9,275.8z"/>
<path class="st6" d="M370.9,236.5c0,0-18,33-9.7,30.7S370.9,236.5,370.9,236.5z"/>
<path class="st6" d="M562.2,269.5c0,0-11,12.9-9,20L562.2,269.5z"/>
<path class="st6" d="M590.9,275.8c0,0-16.5,14.7-14.1,16.3L590.9,275.8z"/>
<path class="st6" d="M601.2,293.8c0,0-1.7,9.6,1,10L601.2,293.8z"/>
<path class="st11" d="M421,497.2c-4.3,5.5-4.3,15.3-6.2,19.3c-1,2.2-3.4,6-5.3,9.1c-0.6-2-1.8-3.2-3.7-2.1c-1.2-9.2-3.4-25-4.1-28.2
	c-1-4.5,10-16.5,10-16.5s10.8,2.3,13.5,7.8S425.3,491.7,421,497.2z"/>
<path class="st6" d="M365.5,381.5c-12,1.7-34.3,33.7-34.3,33.7s-2.9-4.3-7-10.2c-5.1-7.5-12-17.8-17-25.6l29.3-30.2l5.3,5.7
	c0,0,10.3,10.3,10.3,12.3c0,0.8,2,3.1,4.5,5.7C360.6,376.9,365.5,381.5,365.5,381.5z"/>
<path class="st6" d="M327.3,246.1c-0.4-0.9-0.8-1.5-1-1.9l12.9,0.9l6.9,42.5C340.9,276,330.9,253.4,327.3,246.1z"/>
<path class="st6" d="M354.7,374.9c-10.7,10.7-25.8,25.6-30.5,30c-0.7,0.6-1.2,1.1-1.4,1.2c-0.4,0.3-0.9,0.5-1.4,0.6
	c-4.7-6.9-11.4-16.9-16.6-25l2.4-2.5l27.3-28l3.4,3.6c0,0,10.3,10.3,10.3,12.3C348.2,368.1,351.4,371.6,354.7,374.9z"/>
<path class="st4" d="M341.2,245.1l-15-1c0,0-4,9.3-7.3,10s-7.7,8.3-7.7,8.3s-12.8,2.3-12.3,6.3s-19.7,32.6-19.7,32.6
	s-6.7,13.7-2,23.7s8,16.7,9,20.3s12.8,19.7,12.7,22.7s30.3,47,30.3,47s22.3-32,34.3-33.7c0,0-13.3-12.3-13.3-14.3
	s-10.3-12.3-10.3-12.3l-13-14c0,0-4.3-2,0-5.7s-7.3-12-7.3-12s-0.3-6,4-7.7s10-12.7,10-12.7l15.7-8L341.2,245.1z"/>
<path class="st6" d="M283.9,311.5c0,0,18-3.7,18.3-1.3S283.9,311.5,283.9,311.5z"/>
<path class="st6" d="M298.9,329.6c0,0,15.3,2,14.6,5.3S298.9,329.6,298.9,329.6z"/>
<path class="st6" d="M311.5,273c0,0,14.7,20.8,16.7,16.5L311.5,273z"/>
<g class="st12">
	<path d="M399.7,118.2c0.1-2.4-0.2-4.8-0.9-7.2c-0.3-1-0.5-2-0.7-3c-0.1,1.7,0.1,3.4,0.7,5C399.3,114.7,399.6,116.4,399.7,118.2z"/>
	<path d="M469.8,140.2c0.4-3,2.5-5.7,2.6-8.8c0-0.5,0-1-0.1-1.5c-0.4,3.1-2.5,5.9-2.7,9C469.7,139.3,469.8,139.8,469.8,140.2z"/>
	<path d="M472,154.7c-1.3,1.4-3.2,2.1-5.1,1.9c-1.9-0.2-3.7-0.7-5.4-1.5c-2.3-0.9-4.7-2-6.1-4c-1.3-1.9-1.7-4.5-3.7-5.5
		c-2.3-1.2-5,0.4-7.5,1c-2.9,0.7-6-0.1-8.9-1.2c-4.3-1.6-10.2-4.5-14.6-1.5c-3.4,2.3-2.1,7.3-3,10.8c-1.4,5.4-7.1,9-8.2,14.5
		c-0.5,2.4-0.2,5.4-2.1,6.9c-0.8,0.5-1.6,0.9-2.5,1c-3.2,0.7-7.1,0.9-9-1.8c-0.5-0.7-0.9-1.6-1-2.6c-0.3,1.6,0.1,3.2,1,4.6
		c1.9,2.6,5.9,2.5,9,1.8c0.9-0.1,1.8-0.5,2.5-1c2-1.5,1.6-4.5,2.1-6.9c1.1-5.5,6.9-9.1,8.2-14.5c0.9-3.5-0.5-8.4,3-10.8
		c4.4-3,10.3-0.1,14.6,1.5c2.8,1.1,5.9,1.9,8.9,1.2c2.5-0.6,5.2-2.2,7.5-1c2,1.1,2.4,3.7,3.7,5.5c1.4,2,3.8,3.1,6.1,4
		c1.7,0.8,3.5,1.3,5.4,1.5c1.9,0.2,3.8-0.5,5.1-1.9c1-1.3,1.4-3,1.1-4.6C473,153.1,472.6,154,472,154.7z"/>
	<path d="M391.4,147.9c-0.3-2.5-2.5-4.4-3.6-6.7c-0.4-0.9-0.7-1.8-0.8-2.8c-0.2,1.6,0.1,3.3,0.8,4.8c1.1,2.2,3.1,4.1,3.5,6.5
		C391.4,149.1,391.4,148.5,391.4,147.9z"/>
	<path d="M396.9,163.5c0.3-1.1,0.1-2.3-0.6-3.2c-1.1-1.3-3.3-1-4.7-2c-0.7-0.6-1.2-1.4-1.3-2.4c-0.2,1.6,0,3.4,1.3,4.4
		s3.5,0.8,4.7,2C396.6,162.7,396.8,163.1,396.9,163.5z"/>
</g>
<path class="st2" d="M159.5,681.4c0,0-41.4-2.5-36.5,26.5c0,0-1,5.1,3.7,7.5c0,0,0.1-2.2,4.2-1.4c1.5,0.2,3,0.3,4.5,0.2
	c2-0.1,4-0.9,5.5-2.3l0,0c0,0,11.6-4.8,16.1-23.8c0,0,3.3-4.2,3.2-5.2l-7,3c0,0,2.4,5,0.5,9.2c0,0-0.2-9-1.6-8.8
	c-0.3,0-3.6,1.8-3.6,1.8s4.1,8.8,1,15.2c0,0,1.2-10.8-2.3-14.5l-4.9,2.9c0,0,4.8,9.1,1.5,16.5c0,0,0.8-11.3-2.6-15.8l-4.5,3.5
	c0,0,4.5,8.9,1.8,15.1c0,0-0.4-13.2-2.7-14.2c0,0-3.9,3.4-4.5,4.8c0,0,3.1,6.5,1.2,9.9c0,0-1.2-8.8-2.1-8.8c0,0-3.9,5.8-4.3,9.8
	c0,0,0.2-5.9,3.3-10.4c-2.2,0.4-4.3,1.5-5.9,3.1c0,0,0.6-4.1,6.9-4.5c0,0,3.2-4.4,4.1-4.7c0,0-6.3-0.5-10.1,1.2
	c0,0,3.3-3.9,11.2-2.1l4.4-3.6c0,0-8.2-1.1-11.7,0.1c0,0,4-3.4,12.9-0.9l4.8-2.9c0,0-7-1.5-11.2-1c0,0,4.4-2.4,12.6,0.2l3.4-1.5
	c0,0-5.1-1-6.7-1.2s-1.6-0.6-1.6-0.6c3.3-0.5,6.6-0.2,9.7,1.1C152.4,684.6,159.7,681.9,159.5,681.4z"/>
<ellipse class="st0" cx="131.1" cy="717.9" rx="29.3" ry="5"/>
</svg>
